<svg xmlns="http://www.w3.org/2000/svg" viewBox="0 0 400 650"><rect width="400" height="650" fill="#a9d9ee"/><rect y="26" width="400" height="624" fill="#65696a"/><path d="M0 35 H400 M0 625 H400" stroke="#d8dcce" stroke-width="7"/><path d="M101 0 V650 M299 0 V650" stroke="#dbdfda" stroke-width="3" stroke-dasharray="17 26"/>
<g transform="translate(8 30)"><rect x="0" y="0" width="90" height="122" rx="13" fill="#eec72c"/><rect x="14" y="13" width="62" height="38" rx="5" fill="#163e50"/><rect x="0" y="146" width="90" height="122" rx="13" fill="#269baf"/><rect x="14" y="159" width="62" height="38" rx="5" fill="#163e50"/><rect x="0" y="292" width="90" height="122" rx="13" fill="#9f2734"/><rect x="14" y="305" width="62" height="38" rx="5" fill="#163e50"/><rect x="0" y="438" width="90" height="122" rx="13" fill="#263d34"/><rect x="14" y="451" width="62" height="38" rx="5" fill="#163e50"/></g><g transform="translate(310 30)"><rect x="0" y="0" width="90" height="122" rx="13" fill="#cb343e"/><rect x="14" y="13" width="62" height="38" rx="5" fill="#163e50"/><rect x="0" y="146" width="90" height="122" rx="13" fill="#242b35"/><rect x="14" y="159" width="62" height="38" rx="5" fill="#163e50"/><rect x="0" y="292" width="90" height="122" rx="13" fill="#16a5ce"/><rect x="14" y="305" width="62" height="38" rx="5" fill="#163e50"/><rect x="0" y="438" width="90" height="122" rx="13" fill="#d5b629"/><rect x="14" y="451" width="62" height="38" rx="5" fill="#163e50"/></g><g fill="#25282a" stroke="#161719" stroke-width="7"><path d="M138 90q45-17 48 10l-15 21-36-6z"/><path d="M223 235q48-20 51 7l-15 17-39-1z"/><path d="M115 390q45-20 48 7l-14 28-40-7z"/></g><path d="M128 93q19-10 30 5l-10 10h-19z" fill="#6196b2"/><g transform="translate(135 435)"><rect x="0" y="0" width="130" height="187" rx="17" fill="#ba6d29" stroke="#8c4a1c" stroke-width="5"/><rect x="17" y="20" width="96" height="62" rx="9" fill="#2c3a3b"/><path d="M10 4H120M10 25H120M40 4V65M90 4V65" stroke="#bf8f43" stroke-width="7"/><rect x="18" y="133" width="94" height="33" rx="5" fill="#a35924"/><rect x="9" y="144" width="12" height="32" rx="5" fill="#ea3c31"/><rect x="109" y="144" width="12" height="32" rx="5" fill="#ea3c31"/></g></svg>